<?xml version="1.0" encoding="UTF-8" standalone="no"?>
<svg
   width="804.90637"
   height="612.82323"
   viewBox="0 0 804.90637 612.82323"
   version="1.1"
   id="svg104"
   sodipodi:docname="undraw_online_banking_re_kwqh.svg"
   inkscape:version="1.2.2 (732a01da63, 2022-12-09)"
   xmlns:inkscape="http://www.inkscape.org/namespaces/inkscape"
   xmlns:sodipodi="http://sodipodi.sourceforge.net/DTD/sodipodi-0.dtd"
   xmlns="http://www.w3.org/2000/svg"
   xmlns:svg="http://www.w3.org/2000/svg">
  <defs
     id="defs108" />
  <sodipodi:namedview
     id="namedview106"
     pagecolor="#ffffff"
     bordercolor="#000000"
     borderopacity="0.25"
     inkscape:showpageshadow="2"
     inkscape:pageopacity="0.0"
     inkscape:pagecheckerboard="0"
     inkscape:deskcolor="#d1d1d1"
     showgrid="false"
     inkscape:zoom="0.96577338"
     inkscape:cx="478.37309"
     inkscape:cy="311.66732"
     inkscape:window-width="1920"
     inkscape:window-height="1017"
     inkscape:window-x="-8"
     inkscape:window-y="-8"
     inkscape:window-maximized="1"
     inkscape:current-layer="svg104" />
  <g
     id="g14">
    <path
       d="M 544.66632,204.55367 H 423.80114 c -4.14642,0 -7.52004,-3.37362 -7.52004,-7.52004 0,-4.14642 3.37362,-7.52004 7.52004,-7.52004 h 120.86518 c 4.14642,0 7.52004,3.37362 7.52004,7.52004 0,4.14642 -3.37362,7.52004 -7.52004,7.52004 z"
       fill="#e6e6e6"
       id="path10" />
    <path
       d="M 638.98992,230.00611 H 423.80114 c -4.14642,0 -7.52004,-3.37362 -7.52004,-7.52004 0,-4.14642 3.37362,-7.52004 7.52004,-7.52004 h 215.18878 c 4.14642,0 7.52004,3.37362 7.52004,7.52004 0,4.14642 -3.37362,7.52004 -7.52004,7.52004 z"
       fill="#e6e6e6"
       id="path12" />
  </g>
  <path
     d="M 679.71064,269.54186 H 383.08062 c -6.40392,0 -11.61427,-5.21036 -11.61427,-11.61427 v -96.3352 c 0,-6.40392 5.21036,-11.61427 11.61427,-11.61427 h 296.63002 c 6.40392,0 11.61427,5.21036 11.61427,11.61427 v 96.3352 c 0,6.40392 -5.21036,11.61427 -11.61427,11.61427 z M 383.08062,152.02194 c -5.27722,0 -9.57045,4.29323 -9.57045,9.57045 v 96.3352 c 0,5.27722 4.29323,9.57045 9.57045,9.57045 h 296.63002 c 5.27722,0 9.57045,-4.29323 9.57045,-9.57045 v -96.3352 c 0,-5.27722 -4.29323,-9.57045 -9.57045,-9.57045 z"
     fill="#3f3d56"
     id="path16" />
  <g
     id="g26">
    <circle
       cx="685.34265"
       cy="269.78485"
       r="25.54781"
       fill="#5b42cf"
       id="circle18" />
    <path
       d="m 691.60158,261.591 c -2.04366,-2.46523 -5.45521,-3.91968 -8.62516,-2.99323 -2.90341,0.84855 -5.31984,3.59809 -5.04892,6.73491 0.12575,1.456 0.71906,2.85473 1.73906,3.91171 1.15204,1.19379 2.62028,1.606 4.2311,1.74187 1.71867,0.14497 3.19368,0.40077 4.33827,1.81687 0.99541,1.23154 1.30624,2.86529 0.73603,4.35458 -1.35519,3.5395 -6.14891,3.95163 -8.15301,0.76887 -0.78652,-1.2491 -2.77691,-0.0965 -1.98538,1.1605 1.63406,2.5951 4.95634,4.02377 7.94237,3.05347 2.9043,-0.94373 5.03718,-3.95507 4.76709,-7.03493 -0.28048,-3.19828 -2.82658,-5.83377 -5.99061,-6.26719 -1.66671,-0.22831 -3.41052,-0.0459 -4.53805,-1.53738 -0.88116,-1.16557 -1.07029,-2.77714 -0.40423,-4.08352 0.81276,-1.5941 2.58071,-2.59631 4.35061,-2.59966 2.00947,-0.004 3.76503,1.09117 5.01499,2.59897 0.94521,1.1402 2.56398,-0.49421 1.62585,-1.62585 v 0 z"
       fill="#ffffff"
       id="path20" />
    <path
       d="m 682.65534,253.97716 -1.10492,32.1583 c -0.0339,0.98662 1.49901,0.98533 1.53287,0 l 1.10492,-32.1583 c 0.0339,-0.98662 -1.49901,-0.98533 -1.53287,0 z"
       fill="#ffffff"
       id="path22" />
    <path
       d="m 686.23045,253.97716 -1.10492,32.1583 c -0.0339,0.98662 1.49901,0.98533 1.53287,0 l 1.10492,-32.1583 c 0.0339,-0.98662 -1.49901,-0.98533 -1.53287,0 z"
       fill="#ffffff"
       id="path24" />
  </g>
  <g
     id="g98">
    <g
       id="g34">
      <polygon
         points="96.77675 599.54546 107.6313 599.54439 112.79486 557.67639 96.77454 557.67749 96.77675 599.54546"
         fill="#a0616a"
         id="polygon30" />
      <path
         d="M96.39468,610.8689l33.37931-.00127v-.42209c-.00047-7.17512-5.81704-12.99156-12.99216-12.99196h-.0008l-6.09714-4.62558-11.37593,4.62632-2.91381,.00007,.00054,13.41452Z"
         fill="#2f2e41"
         id="path32" />
    </g>
    <g
       id="g40">
      <polygon
         points="163.11153 599.54546 173.96608 599.54439 179.12965 557.67639 163.10933 557.67749 163.11153 599.54546"
         fill="#a0616a"
         id="polygon36" />
      <path
         d="M162.72946,610.8689l33.37931-.00127v-.42209c-.00047-7.17512-5.81704-12.99156-12.99216-12.99196h-.0008l-6.09714-4.62558-11.37593,4.62632-2.91381,.00007,.00054,13.41452Z"
         fill="#2f2e41"
         id="path38" />
    </g>
    <path
       d="M87.18793,333.19425l99.26526-2.7598-.63591,56.0022-5.23696,65.46196s12.21957,48.00543,1.74565,96.01087l-.87283,36.6587-27.93043-1.74565s-4.80054-72.00815,1.30924-99.06576l-18.32935-97.75652-17.45652,95.13804s2.61848,54.98804-4.36413,76.8087v20.56639h-19.74855s-21.27428-72.06313-5.56341-108.72183l-2.18207-136.59728Z"
       fill="#2f2e41"
       id="path42" />
    <path
       d="M158.58504,170.45709s-2.67867-6.72104-4.67867-9.72104c-14,0-15.77897,.96151-28,0l-33.92351,182.13093s-18.65022,15.71692,1.8294,15.71692,50.00839-5.71525,58.10499-1.42881,33.8152-2.38135,33.8152-2.38135l-27.14741-184.31665Z"
       fill="#5b42cf"
       id="path44" />
    <path
       d="M126.46511,160.37469l-12.55873,13.36137-8.29409,.10968c-7.67106,.10144-13.81944,6.38024-13.75987,14.05174l2.60077,76.53698s-23.50274,72.81137-7.78582,75.66899l-2.85762,10.95422,30.14942,18.57455s9.14373-48.9118,10.57254-59.86602,8.5296-72.68749,8.5296-72.68749c0,0-1.38555-50.7828-2.33809-55.48738l-4.25812-21.21663Z"
       fill="#2f2e41"
       id="path46" />
    <path
       d="M154.29861,160.93168l-6.19152,31.91012,15.71692,84.29986s-3.81016,78.10835,8.0966,85.72868l18.76438-4.85762-1.42881-15.24065s1.71525-3.71525,.7627-18.00336c-.95254-14.28811-6.5657-40.33426-6.5657-40.33426l8.31337-94.92654s-20.79849-19.52709-29.84763-17.14574l-7.62033-11.43049Z"
       fill="#2f2e41"
       id="path48" />
    <g
       id="g54">
      <path
         d="M51.66729,340.34517l1.93654-25.9829,14.99726-.96464-3.02487,27.39788c.48484,.68823,.87923,1.45734,1.15608,2.29852,1.50572,4.5751-.98252,9.50461-5.55762,11.01033-4.5751,1.50572-9.50461-.98252-11.01033-5.55762-.96027-2.91774-.29093-5.97557,1.50293-8.20158Z"
         fill="#a0616a"
         id="path50" />
      <path
         d="M109.41682,174.15787l-7.90067,.13082c-5.8399,.0967-11.00078,3.82259-12.93063,9.33525l-29.6066,84.5719-3.07323,15.76996s-14.20253,34.055-8.87754,39.20652l2.53872,9.48468,18.8326-.31183-.12867-7.77114s5.7506-.53967,5.72332-7.38608c0,0,14.90377-25.67072,10.96008-33.70313l10.15323-19.69788,14.30939-89.62907Z"
         fill="#2f2e41"
         id="path52" />
    </g>
    <g
       id="g60">
      <path
         d="M294.39483,307.34815l-19.11247-17.70804-11.63916,9.50676,20.87304,18.00305c.11365,.83416,.3486,1.66594,.71872,2.47046,2.01303,4.37566,7.19213,6.29096,11.56779,4.27793,4.37566-2.01303,6.29096-7.19213,4.27793-11.56779-1.2838-2.79056-3.85632-4.57393-6.68585-4.98238Z"
         fill="#a0616a"
         id="path56" />
      <path
         d="M179.69275,180.07701l-9.58634,37.03137,33.57164,46.13722,10.93056,11.77538s47.07663,36.77864,54.37655,35.51178l9.15913,3.5376,10.84503-15.39965-6.35456-4.47513s2.95247-4.96423-2.5952-8.97638c0,0-39.88931-32.40484-48.70293-33.95155l-9.9323-19.8102-30.35009-42.2795-11.36149-9.10094Z"
         fill="#2f2e41"
         id="path58" />
    </g>
    <path
       d="M156.85091,152.73727c-.13108,.10489-.25346,.18352-.3846,.26221-1.01391,.67306-2.07157,1.27618-3.18162,1.79186-.0175,.0175-.04369,.02625-.06994,.03494-2.00163,.94402-4.16064,1.65203-6.44199,2.07163-2.33379,.42829-4.65013,.54193-6.90528,.35835-11.61655-.91778-21.61606-9.51003-23.83621-21.51118-.743-4.00332-.53323-7.95419,.45449-11.63405,2.56106-9.51003,10.36667-17.18451,20.69828-19.09875,14.32624-2.64844,28.0843,6.81784,30.7328,21.14408,1.95794,10.59388-2.70969,20.88186-11.06592,26.5809Z"
       fill="#a0616a"
       id="path62" />
    <path
       d="M125.90732,152.09294l1.59146-7.34947s-4.33206-3.77038,0-7.27644l2.35747-1.53147h3.59935l2.32442-11.84754,14.80943-.9873s14.80943-2.96189,16.78402-7.89836c0,0-4.93648-.9873-3.94918-4.93648,0,0-11.84754-14.80943-22.70779-10.86025-10.86025,3.94918-14.80943,7.89836-14.80943,7.89836,0,0-17.77131-2.96189-17.77131,18.75861s17.77156,26.03033,17.77156,26.03033Z"
       fill="#2f2e41"
       id="path64" />
    <g
       id="g86">
      <path
         d="M288.23124,341.71269h-29.83621c-3.23465,0-5.86625-2.63161-5.86625-5.86631v-57.01087c0-3.23465,2.63161-5.86625,5.86625-5.86625h29.83621c3.23458,0,5.86619,2.63161,5.86619,5.86625v57.01087c0,3.23471-2.63161,5.86631-5.86619,5.86631Z"
         fill="#3f3d56"
         id="path66" />
      <path
         d="M294.09745,293.93973c-.13687,0-.24817,.1113-.24817,.24817v7.94147c0,.13687,.1113,.24817,.24817,.24817s.24817-.1113,.24817-.24817v-7.94147c0-.13687-.1113-.24817-.24817-.24817Z"
         fill="#3f3d56"
         id="path68" />
      <path
         d="M293.5391,278.83555v57.00985c0,2.8155-2.19135,5.11853-4.96218,5.29721h-.00124c-.04095,.00248-.08189,.00497-.12409,.00621-.07321,.00372-.14642,.00496-.22087,.00496,0,0-.27299-.01986-.77182-.05708-.50379-.03722-1.23713-.09306-2.15165-.16627-.27422-.0211-.56335-.04468-.8686-.06949-.60801-.04964-1.2756-.10424-1.99157-.16628-.2854-.02358-.58072-.04963-.88225-.07569-1.54114-.13277-3.26717-.28788-5.08751-.46408-.30773-.02854-.61794-.05832-.93064-.08935-.08189-.00869-.16504-.01613-.24817-.02482-1.29794-.1278-2.63186-.26554-3.97074-.41196-.08314-.00869-.16628-.01737-.24817-.02606-2.30675-.25437-4.62219-.53109-6.78872-.82889-1.66647-.22832-3.24483-.46905-4.66189-.71846-.4616-.08189-.90583-.16379-1.3302-.24693-.08314-.01613-.16628-.03226-.24817-.04963-2.99914-.60058-4.96342-1.2483-4.96342-1.9134v-57.00985c0-2.93213,2.37624-5.30837,5.30838-5.30837h3.16914c.50627,0,.91327,.39459,.9567,.89962,.00372,.03351,.00744,.067,.01365,.10051,.09182,.50751,.55714,.86115,1.07334,.86115h19.40946c.51619,0,.98151-.35364,1.07334-.86115,.0062-.03351,.00993-.067,.01366-.10051,.04343-.50503,.45042-.89962,.95669-.89962h3.16915c2.93213,0,5.30837,2.37624,5.30837,5.30837Z"
         fill="#5b42cf"
         id="path70" />
      <path
         d="M252.40472,287.98362c-.13687,0-.24817,.1113-.24817,.24817v1.98537c0,.13687,.1113,.24817,.24817,.24817s.24817-.1113,.24817-.24817v-1.98537c0-.13687-.1113-.24817-.24817-.24817Z"
         fill="#3f3d56"
         id="path72" />
      <path
         d="M252.40472,293.93973c-.13687,0-.24817,.1113-.24817,.24817v3.84665c0,.13687,.1113,.24817,.24817,.24817s.24817-.1113,.24817-.24817v-3.84665c0-.13687-.1113-.24817-.24817-.24817Z"
         fill="#3f3d56"
         id="path74" />
      <path
         d="M252.40472,299.39949c-.13687,0-.24817,.1113-.24817,.24817v3.84665c0,.13687,.1113,.24817,.24817,.24817s.24817-.1113,.24817-.24817v-3.84665c0-.13687-.1113-.24817-.24817-.24817Z"
         fill="#3f3d56"
         id="path76" />
      <rect
         x="256.68567"
         y="274.39626"
         width="4.83934"
         height=".62043"
         rx=".31021"
         ry=".31021"
         fill="#3f3d56"
         id="rect78" />
      <circle
         cx="285.84577"
         cy="274.52034"
         r=".49634"
         fill="#3f3d56"
         id="circle80" />
      <circle
         cx="287.21071"
         cy="274.52034"
         r=".49634"
         fill="#3f3d56"
         id="circle82" />
      <circle
         cx="288.57565"
         cy="274.52034"
         r=".49634"
         fill="#3f3d56"
         id="circle84" />
    </g>
    <g
       id="g96">
      <circle
         cx="273.97271"
         cy="307.8823"
         r="15.71087"
         fill="#fff"
         id="circle88" />
      <path
         d="M277.82172,302.8434c-1.25677-1.51602-3.35473-2.41044-5.30413-1.84072-1.78548,.52182-3.27149,2.21268-3.10488,4.1417,.07733,.89538,.44219,1.75555,1.06945,2.40554,.70846,.73413,1.61136,.98762,2.60195,1.07118,1.05692,.08915,1.96398,.24645,2.66786,1.1173,.61214,.75735,.80329,1.76204,.45263,2.67789-.83339,2.17665-3.78133,2.43009-5.01377,.47283-.48368-.76814-1.70769-.05938-1.22093,.71366,1.00488,1.59588,3.04795,2.47445,4.88424,1.87776,1.78602-.58036,3.09767-2.43221,2.93157-4.3262-.17248-1.96681-1.73823-3.58753-3.68399-3.85407-1.02496-.1404-2.09733-.02823-2.79072-.94543-.54188-.71678-.65818-1.70783-.24858-2.5112,.49981-.9803,1.58704-1.59662,2.67545-1.59868,1.23574-.00234,2.31534,.67102,3.08401,1.59826,.58127,.70118,1.57674-.30392,.99983-.99983h0Z"
         fill="#5b42cf"
         id="path90" />
      <path
         d="M272.32014,298.1612l-.67948,19.77605c-.02085,.60673,.92183,.60594,.94265,0l.67948-19.77605c.02085-.60673-.92183-.60594-.94265,0h0Z"
         fill="#5b42cf"
         id="path92" />
      <path
         d="M274.51869,298.1612l-.67948,19.77605c-.02085,.60673,.92183,.60594,.94265,0l.67948-19.77605c.02085-.60673-.92183-.60594-.94265,0h0Z"
         fill="#5b42cf"
         id="path94" />
    </g>
  </g>
  <path
     d="M255.81023,611.63323c0,.66003-.53003,1.19-1.19006,1.19H1.33018c-.65997,0-1.19-.52997-1.19-1.19,0-.65997,.53003-1.19,1.19-1.19H254.62016c.66003,0,1.19006,.53003,1.19006,1.19Z"
     fill="#ccc"
     id="path102" />
</svg>
